<svg version="1.1" viewBox="0 0 2000 2266.216" fill="none" stroke="none" stroke-linecap="square" stroke-miterlimit="10" xmlns:xlink="http://www.w3.org/1999/xlink" xmlns="http://www.w3.org/2000/svg" width="2000" height="2266.217"><clipPath id="p.0"><path d="M0 0h2000v2266.217H0z" clip-rule="nonzero"/></clipPath><g clip-path="url(#p.0)"><path fill="#000000" fill-opacity="0.0" d="M0 0h2000v2266.217H0z" fill-rule="evenodd"/><path fill="#cfe2f3" d="M860.041 654.835c0 -43.563 26.916 -78.878 60.117 -78.878 15.942 0 31.233 8.312 42.507 23.103s17.608 34.855 17.608 55.775c0 43.563 -26.916 78.878 -60.117 78.878s-60.115 -35.317 -60.115 -78.878" fill-rule="evenodd"/><path stroke="#000000" stroke-width="2.116043844428457" stroke-linejoin="round" stroke-linecap="butt" d="M860.041 654.835c0 -43.563 26.916 -78.878 60.117 -78.878 15.942 0 31.233 8.312 42.507 23.103s17.608 34.855 17.608 55.775c0 43.563 -26.916 78.878 -60.117 78.878s-60.115 -35.317 -60.115 -78.878z" fill-rule="evenodd" label="head"/><path fill="#cfe2f3" d="M816.052 733.713h208.208v110.568H816.052z" fill-rule="evenodd"/><path stroke="#000000" stroke-width="2.116043844428457" stroke-linejoin="round" stroke-linecap="butt" d="M816.052 733.713h208.208v110.568H816.052z" fill-rule="evenodd" label="Torso"/><path fill="#cfe2f3" d="m712.288 876.992 53.517 -136.561 50.252 19.728 -53.517 136.559z" fill-rule="evenodd"/><path stroke="#000000" stroke-width="2.116043844428457" stroke-linejoin="round" stroke-linecap="butt" d="m712.288 876.992 53.517 -136.561 50.252 19.728 -53.517 136.559z" fill-rule="evenodd" label="Right arm"/><path fill="#cfe2f3" d="m658.771 1013.57 53.517 -136.559 40.188 15.729 -53.517 136.559z" fill-rule="evenodd"/><path stroke="#000000" stroke-width="2.116043844428457" stroke-linejoin="round" stroke-linecap="butt" d="m658.771 1013.57 53.517 -136.559 40.188 15.729 -53.517 136.559z" fill-rule="evenodd" label="Right forearm"/><path fill="#cfe2f3" d="m624.787 1088.55 29.991 -76.512 40.188 15.729 -29.991 76.512z" fill-rule="evenodd"/><path stroke="#000000" stroke-width="2.116043844428457" stroke-linejoin="round" stroke-linecap="butt" d="m624.787 1088.55 29.991 -76.512 40.188 15.729 -29.991 76.512z" fill-rule="evenodd" label="Right hand"/><path fill="#cfe2f3" d="m1128.027 876.992 -53.517 -136.561 -50.252 19.728 53.517 136.559z" fill-rule="evenodd"/><path stroke="#000000" stroke-width="2.116043844428457" stroke-linejoin="round" stroke-linecap="butt" d="m1128.027 876.992 -53.517 -136.561 -50.252 19.728 53.517 136.559z" fill-rule="evenodd" label="Left arm"/><path fill="#cfe2f3" d="m1181.544 1013.57 -53.517 -136.559 -40.19 15.729 53.519 136.559z" fill-rule="evenodd"/><path stroke="#000000" stroke-width="2.116043844428457" stroke-linejoin="round" stroke-linecap="butt" d="m1181.544 1013.57 -53.517 -136.559 -40.19 15.729 53.519 136.559z" fill-rule="evenodd" label="Left forearm"/><path fill="#cfe2f3" d="m1215.528 1088.55 -29.991 -76.512 -40.188 15.729 29.991 76.512z" fill-rule="evenodd"/><path stroke="#000000" stroke-width="2.116043844428457" stroke-linejoin="round" stroke-linecap="butt" d="m1215.528 1088.55 -29.991 -76.512 -40.188 15.729 29.991 76.512z" fill-rule="evenodd" label="Left hand"/><path fill="#cfe2f3" d="m1016.023 844.268 -30.824 123.298h-127.363l-30.824 -123.298z" fill-rule="evenodd"/><path stroke="#000000" stroke-width="2.116043844428457" stroke-linejoin="round" stroke-linecap="butt" d="m1016.023 844.268 -30.824 123.298h-127.363l-30.824 -123.298z" fill-rule="evenodd" label="Belly"/><path fill="#cfe2f3" d="M836.76 967.565h166.55v110.568h-166.55z" fill-rule="evenodd"/><path stroke="#000000" stroke-width="2.116043844428457" stroke-linejoin="round" stroke-linecap="butt" d="M836.76 967.565h166.55v110.568h-166.55z" fill-rule="evenodd" label="Hips"/><path fill="#cfe2f3" d="M844.407 1078.122h58.183v253.724H844.407z" fill-rule="evenodd"/><path stroke="#000000" stroke-width="2.116043844428457" stroke-linejoin="round" stroke-linecap="butt" d="M844.407 1078.122h58.183v253.724H844.407z" fill-rule="evenodd" label="Right leg"/><path fill="#cfe2f3" d="M939.452 1078.122h58.183v253.724h-58.183z" fill-rule="evenodd"/><path stroke="#000000" stroke-width="2.116043844428457" stroke-linejoin="round" stroke-linecap="butt" d="M939.452 1078.122h58.183v253.724h-58.183z" fill-rule="evenodd" label="Left leg"/><path fill="#cfe2f3" d="M849.799 1331.846h46.655v183.213h-46.655z" fill-rule="evenodd"/><path stroke="#000000" stroke-width="2.116043844428457" stroke-linejoin="round" stroke-linecap="butt" d="M849.799 1331.846h46.655v183.213h-46.655z" fill-rule="evenodd" label="Right calf"/><path fill="#cfe2f3" d="M945.216 1331.846h46.655v183.213H945.216z" fill-rule="evenodd"/><path stroke="#000000" stroke-width="2.116043844428457" stroke-linejoin="round" stroke-linecap="butt" d="M945.216 1331.846h46.655v183.213H945.216z" fill-rule="evenodd" label="Left calf"/><path fill="#cfe2f3" d="M847.135 1515.06h51.985v64.848h-51.985z" fill-rule="evenodd"/><path stroke="#000000" stroke-width="2.116043844428457" stroke-linejoin="round" stroke-linecap="butt" d="M847.135 1515.06h51.985v64.848h-51.985z" fill-rule="evenodd" label="Right foot"/><path fill="#cfe2f3" d="M942.549 1515.06h51.985v64.848H942.549z" fill-rule="evenodd"/><path stroke="#000000" stroke-width="2.116043844428457" stroke-linejoin="round" stroke-linecap="butt" d="M942.549 1515.06h51.985v64.848H942.549z" fill-rule="evenodd" label="Left foot"/></g></svg>